<?xml version="1.0" encoding="UTF-8" standalone="no"?>
<svg width="320px" height="240px" viewBox="0 0 320 240" version="1.1" xmlns="http://www.w3.org/2000/svg" xmlns:xlink="http://www.w3.org/1999/xlink" xmlns:sketch="http://www.bohemiancoding.com/sketch/ns">
    <!-- Generator: Sketch 3.4.4 (17249) - http://www.bohemiancoding.com/sketch -->
    <title>thumbnail</title>
    <desc>Created with Sketch.</desc>
    <defs></defs>
    <g id="Page-1" stroke="none" stroke-width="1" fill="none" fill-rule="evenodd" sketch:type="MSPage">
        <g id="thumbnail" sketch:type="MSArtboardGroup">
            <rect id="Rectangle-8" fill="#EDEBEB" sketch:type="MSShapeGroup" x="-31" y="-33" width="405" height="301"></rect>
            <g id="Page-1" sketch:type="MSLayerGroup" transform="translate(31.000000, 67.000000)">
                <g id="Artboard-1" sketch:type="MSShapeGroup">
                    <g id="Oval-1-+-{}" transform="translate(151.924005, 0.000000)">
                        <path d="M53.5379973,107 C83.1062167,107 107.075995,83.0472341 107.075995,53.5 C107.075995,23.9527659 83.1062167,0 53.5379973,0 C23.9697778,0 0,23.9527659 0,53.5 C0,83.0472341 23.9697778,107 53.5379973,107 L53.5379973,107 Z" id="Oval-1" fill="#28B0DD"></path>
                        <g id="{}" transform="translate(22.594017, 26.504587)" fill="#FFFFFF">
                            <path d="M15.9631643,45.3400231 C15.9631643,46.9965681 16.5361952,48.2082816 17.6822743,48.9752005 C18.8283534,49.7421199 20.8748925,50.1460244 23.8219529,50.1869265 L23.8219529,54.7884173 C14.8579773,54.6657106 10.3760568,51.6696584 10.3760568,45.8001721 L10.3760568,35.5541858 C10.3760568,31.6889142 6.9174058,29.7563074 0,29.7563074 L0,25.0014335 C6.9174058,25.0014335 10.3760568,23.0688267 10.3760568,19.203555 L10.3760568,8.98824543 C10.3760568,3.11875888 14.8579773,0.122707036 23.8219529,0 L23.8219529,4.57081423 C20.8748925,4.61171658 18.8283534,5.01562117 17.6822743,5.78254014 C16.5361952,6.54945912 15.9631643,7.76117291 15.9631643,9.41771789 L15.9631643,19.6023509 C15.9631643,23.8357436 13.5789463,26.371651 8.81043876,27.2101491 L8.81043876,27.5782684 C13.5789463,28.4167664 15.9631643,30.9526738 15.9631643,35.1860665 L15.9631643,45.3400231 L15.9631643,45.3400231 Z M45.6485104,35.1860665 C45.6485104,30.9526738 48.0429612,28.4167664 52.8319341,27.5782684 L52.8319341,27.2101491 C48.0429612,26.371651 45.6485104,23.8357436 45.6485104,19.6023509 L45.6485104,9.41771789 C45.6485104,7.76117291 45.0703629,6.54434639 43.9140511,5.76720183 C42.7577392,4.99005726 40.7163165,4.59126541 37.7897217,4.57081423 L37.7897217,0 C46.7741628,0.122707036 51.2663162,3.11875888 51.2663162,8.98824543 L51.2663162,19.203555 C51.2663162,23.0688267 54.7249672,25.0014335 61.6423732,25.0014335 L61.6423732,29.7563074 C54.7249672,29.7563074 51.2663162,31.6889142 51.2663162,35.5541858 L51.2663162,45.8001721 C51.2663162,51.6696584 46.7741628,54.6657106 37.7897217,54.7884173 L37.7897217,50.1869265 C40.7163165,50.1664756 42.7577392,49.7676835 43.9140511,48.9905389 C45.0703629,48.2133944 45.6485104,46.9965681 45.6485104,45.3400231 L45.6485104,35.1860665 L45.6485104,35.1860665 Z" id="Shape"></path>
                        </g>
                    </g>
                    <g id="Oval-1-Copy-+-[]">
                        <path d="M53.5379973,107 C83.1062167,107 107.075995,83.0472341 107.075995,53.5 C107.075995,23.9527659 83.1062167,0 53.5379973,0 C23.9697778,0 0,23.9527659 0,53.5 C0,83.0472341 23.9697778,107 53.5379973,107 L53.5379973,107 Z" id="Oval-1-Copy" fill="#28B0DD"></path>
                        <path d="M44.69686,81.2930048 L28.4881086,81.2930048 L28.4881086,26.5045872 L44.69686,26.5045872 L44.69686,31.0754014 L34.0752161,31.0754014 L34.0752161,76.6915139 L44.69686,76.6915139 L44.69686,81.2930048 L44.69686,81.2930048 Z M62.440531,76.6915139 L73.0621752,76.6915139 L73.0621752,31.0754014 L62.440531,31.0754014 L62.440531,26.5045872 L78.6492828,26.5045872 L78.6492828,81.2930048 L62.440531,81.2930048 L62.440531,76.6915139 L62.440531,76.6915139 Z" id="[]" fill="#FFFFFF"></path>
                    </g>
                </g>
            </g>
        </g>
    </g>
</svg>