<?xml version="1.0" encoding="UTF-8" standalone="no"?>
<svg width="462px" height="347px" viewBox="0 0 462 347" version="1.1" xmlns="http://www.w3.org/2000/svg" xmlns:xlink="http://www.w3.org/1999/xlink">
    <!-- Generator: Sketch 3.6.1 (26313) - http://www.bohemiancoding.com/sketch -->
    <title>observatory</title>
    <desc>Created with Sketch.</desc>
    <defs></defs>
    <g id="Page-1" stroke="none" stroke-width="1" fill="none" fill-rule="evenodd" opacity="0.5">
        <g id="observatory">
            <g id="Page-1" transform="translate(86.000000, 30.000000)">
                <path d="M168.012697,61.5390135 C172.942119,61.5390135 173.264304,65.9346573 173.282714,66.8386931 C173.282714,68.1716848 174.359731,69.250993 175.708303,69.250993 C177.038465,69.250993 178.120084,68.1716848 178.120084,66.8202434 C178.120084,61.8849455 182.524807,61.5574632 183.367089,61.5390135 C184.715661,61.5390135 185.797281,60.4597053 185.797281,59.1267136 C185.797281,57.793722 184.715661,56.6959641 183.367089,56.6959641 C178.442269,56.6959641 178.120084,52.2818706 178.120084,51.4147341 C178.120084,50.0817425 177.038465,48.9839846 175.708303,48.9839846 C174.378142,48.9839846 173.282714,50.0632928 173.282714,51.4147341 C173.282714,56.350032 168.877992,56.6775144 168.012697,56.6959641 C166.664124,56.6959641 165.587108,57.7752723 165.587108,59.1267136 C165.587108,60.4412556 166.682535,61.5390135 168.012697,61.5390135 L168.012697,61.5390135 Z" id="Fill-1" fill="#D0024D"></path>
                <path d="M283.027958,105.158744 C278.098535,105.158744 277.776351,100.744651 277.75794,99.8821268 C277.75794,98.5491352 276.680923,97.4513773 275.350762,97.4513773 C274.015997,97.4513773 272.938981,98.5306855 272.938981,99.8821268 C272.938981,104.817425 268.534258,105.140295 267.673566,105.158744 C266.324993,105.158744 265.243374,106.242665 265.243374,107.594106 C265.243374,108.927098 266.324993,110.024856 267.673566,110.024856 C272.598386,110.024856 272.92057,114.4205 272.938981,115.306086 C272.938981,116.639078 274.015997,117.718386 275.350762,117.718386 C276.680923,117.718386 277.75794,116.639078 277.75794,115.287636 C277.75794,110.347726 282.162662,110.024856 283.027958,110.024856 C284.371928,110.024856 285.453547,108.945548 285.453547,107.594106 C285.453547,106.242665 284.35812,105.158744 283.027958,105.158744 L283.027958,105.158744 Z" id="Fill-2" fill="#D0024D"></path>
                <path d="M284.321299,49.8096092 C285.200402,49.8096092 285.904605,49.1085202 285.904605,48.2275464 C285.904605,44.9988469 288.781252,44.7866752 289.338171,44.7866752 C290.217275,44.7866752 290.916875,44.0809737 290.916875,43.2 C290.916875,42.3144138 290.198864,41.6133248 289.338171,41.6133248 C286.116326,41.6133248 285.918413,38.7305573 285.904605,38.1724536 C285.904605,37.3053171 285.200402,36.5857783 284.321299,36.5857783 C283.437593,36.5857783 282.737992,37.3053171 282.737992,38.1724536 C282.737992,41.4149904 279.861345,41.6133248 279.286015,41.6133248 C278.406912,41.6133248 277.702709,42.3144138 277.702709,43.2 C277.702709,44.0809737 278.406912,44.7866752 279.286015,44.7866752 C282.521668,44.7866752 282.719581,47.6694427 282.737992,48.2459962 C282.737992,49.1085202 283.437593,49.8096092 284.321299,49.8096092 L284.321299,49.8096092 Z" id="Fill-3" fill="#D0024D"></path>
                <path d="M96.3496602,67.3045484 C99.5669025,67.3045484 99.7832264,70.1873158 99.801637,70.7638693 C99.801637,71.6310058 100.519648,72.3505445 101.384944,72.3505445 C102.264047,72.3505445 102.963648,71.6494555 102.963648,70.7638693 C102.963648,67.5397822 105.840295,67.3229981 106.401816,67.3229981 C107.28092,67.3229981 107.98052,66.621909 107.98052,65.7363229 C107.98052,64.8553491 107.262509,64.1542601 106.401816,64.1542601 C103.179971,64.1542601 102.963648,61.2714926 102.963648,60.7133889 C102.963648,59.8278027 102.264047,59.1267136 101.384944,59.1267136 C100.501238,59.1267136 99.801637,59.8462524 99.801637,60.7133889 C99.801637,63.9559257 96.9249897,64.1542601 96.3496602,64.1542601 C95.4705568,64.1542601 94.7663536,64.8553491 94.7663536,65.7363229 C94.7663536,66.6034593 95.4843648,67.3045484 96.3496602,67.3045484 L96.3496602,67.3045484 Z" id="Fill-4" fill="#D0024D"></path>
                <path d="M211.668695,21.8121717 C218.213643,21.8121717 223.51588,27.1256887 223.51588,33.6661115 C223.51588,35.4695708 224.970312,36.9086483 226.751532,36.9086483 C228.551163,36.9086483 229.987185,35.4511211 229.987185,33.6661115 C229.987185,27.1256887 235.289421,21.8121717 241.815959,21.8121717 C243.634,21.8121717 245.070022,20.3546445 245.070022,18.5696348 C245.070022,16.7846252 243.615589,15.327098 241.815959,15.327098 C235.289421,15.327098 229.987185,10.0089686 229.987185,3.4685458 C229.987185,1.66969891 228.532752,0.226008969 226.751532,0.226008969 C224.951902,0.226008969 223.51588,1.68814862 223.51588,3.4685458 C223.51588,10.0089686 218.213643,15.327098 211.668695,15.327098 C209.869065,15.327098 208.42844,16.7846252 208.42844,18.5696348 C208.42844,20.3730942 209.869065,21.8121717 211.668695,21.8121717 L211.668695,21.8121717 Z M226.751532,13.8834081 C228.008052,15.7053171 229.609769,17.3058296 231.42781,18.5696348 C229.591359,19.8288277 228.008052,21.4339526 226.751532,23.2558616 C225.495013,21.4155029 223.893296,19.8288277 222.075255,18.5696348 C223.893296,17.3058296 225.476602,15.7053171 226.751532,13.8834081 L226.751532,13.8834081 Z" id="Fill-5" fill="#D0024D"></path>
                <path d="M133.925577,44.3715567 C138.799768,44.3715567 142.753432,48.3336323 142.753432,53.2181935 C142.753432,54.5511851 143.830449,55.648943 145.179021,55.648943 C146.509183,55.648943 147.609213,54.5696348 147.609213,53.2181935 C147.609213,48.3336323 151.562877,44.3715567 156.437068,44.3715567 C157.78564,44.3715567 158.862657,43.2876361 158.862657,41.9361947 C158.862657,40.6032031 157.78564,39.5054452 156.437068,39.5054452 C151.562877,39.5054452 147.609213,35.5433696 147.609213,30.6588085 C147.609213,29.3258168 146.527594,28.2280589 145.179021,28.2280589 C143.84886,28.2280589 142.753432,29.3073671 142.753432,30.6588085 C142.753432,35.5433696 138.799768,39.5054452 133.925577,39.5054452 C132.595416,39.5054452 131.499988,40.5847534 131.499988,41.9361947 C131.499988,43.2691864 132.595416,44.3715567 133.925577,44.3715567 L133.925577,44.3715567 Z M145.160611,38.4445868 C146.099549,39.8098655 147.282426,40.9998719 148.649409,41.9361947 C147.282426,42.8725176 146.099549,44.062524 145.160611,45.4324151 C144.226276,44.062524 143.038796,42.8725176 141.676416,41.9361947 C143.038796,40.9998719 144.226276,39.8098655 145.160611,38.4445868 L145.160611,38.4445868 Z" id="Fill-6" fill="#D0024D"></path>
                <path d="M271.157761,64.1727098 C266.288172,64.1727098 262.329906,60.2060218 262.329906,55.326073 C262.329906,53.9930814 261.252889,52.8907111 259.922727,52.8907111 C258.574155,52.8907111 257.497138,53.9746316 257.497138,55.326073 C257.497138,60.2060218 253.538872,64.1727098 248.669283,64.1727098 C247.320711,64.1727098 246.239092,65.2520179 246.239092,66.6034593 C246.239092,67.936451 247.320711,69.0342088 248.669283,69.0342088 C253.538872,69.0342088 257.497138,73.0008969 257.497138,77.8808456 C257.497138,79.2138373 258.574155,80.2977578 259.922727,80.2977578 C261.252889,80.2977578 262.329906,79.2138373 262.329906,77.8808456 C262.329906,73.0008969 266.288172,69.0342088 271.157761,69.0342088 C272.506333,69.0342088 273.587952,67.9549007 273.587952,66.6034593 C273.587952,65.2520179 272.487922,64.1727098 271.157761,64.1727098 L271.157761,64.1727098 Z M259.904317,70.0996797 C258.969982,68.7297886 257.782502,67.5397822 256.415519,66.6034593 C257.782502,65.6671365 258.969982,64.47713 259.904317,63.1072389 C260.838652,64.47713 262.026132,65.6671365 263.393114,66.6034593 C262.026132,67.5397822 260.857062,68.7297886 259.904317,70.0996797 L259.904317,70.0996797 Z" id="Fill-7" fill="#D0024D"></path>
                <path d="M210.71595,66.082255 C207.029239,66.082255 203.738354,67.0370275 200.935349,68.928123 L186.404829,78.7295324 C176.463136,74.7674568 165.964524,72.7287636 155.175946,72.7287636 C155.106906,72.7287636 155.051675,72.765663 154.978033,72.765663 C154.908993,72.765663 154.853761,72.7287636 154.780119,72.7287636 L154.582206,72.7287636 L154.545385,72.7287636 C154.494756,72.7287636 154.421114,72.7472133 154.365882,72.7472133 C154.347472,72.7472133 154.333664,72.7287636 154.315253,72.7287636 C154.278432,72.7287636 154.260021,72.7472133 154.2232,72.7472133 L153.970055,72.7472133 C153.937837,72.7472133 153.901016,72.7287636 153.845784,72.7287636 C153.790553,72.7287636 153.758334,72.7472133 153.721513,72.765663 C107.731978,73.3237668 70.4782455,110.979628 70.4782455,157.196156 C70.4782455,161.6287 70.8188405,166.042793 71.5000306,170.383088 L36.2438418,170.383088 C36.1379812,170.383088 36.0459285,170.438437 35.9400679,170.438437 C35.723744,170.456887 35.5258307,170.489174 35.3279173,170.544523 C35.0747724,170.618322 34.8630511,170.687508 34.6283167,170.798206 C34.4304034,170.885842 34.2693111,170.996541 34.1082189,171.121076 C33.9977556,171.194875 33.8734845,171.250224 33.7630212,171.33786 L1.30983754,201.032671 C-0.181416402,202.39795 -0.287277021,204.722614 1.07970575,206.221653 C1.79771691,207.010378 2.78728357,207.425496 3.79526076,207.425496 C4.67436417,207.425496 5.55346757,207.102627 6.25767082,206.470724 L9.95818985,203.085202 L9.95818985,255.279436 L4.15426634,255.279436 C2.1199014,255.279436 0.485965761,256.93991 0.485965761,258.955541 L0.485965761,284.254709 C0.485965761,286.288789 2.1199014,287.926201 4.15426634,287.926201 L245.484259,287.926201 C247.518624,287.926201 249.15256,286.27034 249.15256,284.254709 L249.15256,258.955541 C249.15256,256.921461 247.500214,255.279436 245.484259,255.279436 L238.331764,255.279436 L238.331764,177.753748 L245.631544,177.753748 C247.661306,177.753748 249.295242,176.093274 249.295242,174.077643 C249.295242,172.038949 247.642895,170.383088 245.613133,170.383088 L238.437624,170.383088 C239.118814,166.042793 239.482422,161.6287 239.482422,157.196156 C239.482422,153.681486 239.210867,150.166816 238.778219,146.689045 L248.701502,140.116336 L248.701502,140.116336 C248.701502,140.116336 248.719912,140.116336 248.719912,140.097886 C260.571699,132.113773 259.347398,110.22319 245.953728,90.2606022 C236.081075,75.5746316 222.254757,66.082255 210.71595,66.082255 L210.71595,66.082255 Z M231.855855,142.473286 L189.750945,170.383088 L173.499038,170.383088 C173.62331,166.979116 173.660131,162.491224 173.660131,162.435874 C173.660131,161.877771 172.45424,126.472774 167.386738,100.315695 C167.566241,100.241896 167.727333,100.186547 167.888426,100.080461 L193.041829,83.1067265 C191.748489,93.1987188 195.361557,106.348751 203.683123,118.765407 C211.737735,130.743882 222.420452,139.267649 232.343735,142.007431 C232.182642,142.150416 232.00314,142.274952 231.855855,142.473286 L231.855855,142.473286 Z M142.035421,170.383088 C141.943369,167.804741 141.874329,163.750416 141.874329,162.435874 C141.874329,133.28533 148.667819,88.9967969 154.098929,80.9619475 C159.741761,89.3242793 166.34194,136.075849 166.34194,162.435874 C166.34194,163.768866 166.268298,167.804741 166.180848,170.383088 L142.035421,170.383088 Z M110.44293,170.383088 C110.065514,167.122101 109.835383,162.472774 109.835383,159.82524 C109.835383,137.556438 125.870965,93.6276746 145.574848,82.6408712 C136.443219,105.809097 134.519317,161.734785 134.519317,162.435874 C134.519317,162.509673 134.556138,166.997566 134.68041,170.383088 L110.44293,170.383088 Z M165.711379,92.672902 C164.542309,87.8990391 163.193737,83.7017297 161.647252,80.385394 C167.511009,80.8743113 173.227483,82.045868 178.801275,83.8447149 L165.711379,92.672902 Z M77.8148466,157.196156 C77.8148466,122.257015 101.131799,92.672902 132.991242,83.231262 C127.325398,88.8538117 121.94952,96.63959 117.06152,106.4041 C108.357937,123.82524 102.498781,145.286867 102.498781,159.806791 C102.498781,162.094555 102.678284,166.600897 103.0557,170.364638 L78.947095,170.364638 C78.2244812,166.05663 77.8148466,161.642537 77.8148466,157.196156 L77.8148466,157.196156 Z M198.486747,255.260987 L162.908374,255.260987 L162.908374,209.136707 L198.486747,209.136707 L198.486747,255.260987 Z M198.486747,262.613197 L198.486747,267.746829 L162.908374,267.746829 L162.908374,262.613197 L198.486747,262.613197 Z M208.3594,280.251121 L152.175028,280.251121 L152.175028,275.117489 L208.3594,275.117489 L208.3594,280.251121 Z M155.571773,267.765279 L148.506727,267.765279 C146.476965,267.765279 144.838426,269.425753 144.838426,271.441384 L144.838426,280.560154 L53.5221359,280.560154 L53.5221359,262.631646 L155.553362,262.631646 L155.553362,267.765279 L155.571773,267.765279 Z M46.1855347,255.260987 L32.5065017,255.260987 L32.5065017,220.381807 L46.1855347,220.381807 L46.1855347,255.260987 Z M46.1855347,262.613197 L46.1855347,267.746829 L26.93271,267.746829 L26.93271,262.613197 L46.1855347,262.613197 Z M19.6145194,275.117489 L46.1855347,275.117489 L46.1855347,280.541704 L19.6145194,280.541704 L19.6145194,275.117489 Z M67.7626905,255.260987 L67.7626905,201.590775 L73.4791639,205.769635 C74.109725,206.23549 74.8645572,206.470724 75.6378,206.470724 L107.98052,206.470724 L107.98052,255.260987 L67.7626905,255.260987 Z M76.8436905,199.118514 L47.534107,177.753748 L86.3527357,177.753748 L119.666612,199.118514 L76.8436905,199.118514 Z M17.294791,196.364894 L36.5153973,178.796156 L60.5549631,196.327995 C60.518142,196.544779 60.4260893,196.724664 60.4260893,196.941448 L60.4260893,255.260987 L53.5221359,255.260987 L53.5221359,216.687252 C53.5221359,214.653171 51.8882003,213.011147 49.8538353,213.011147 L28.8382011,213.011147 C26.8084388,213.011147 25.1699005,214.671621 25.1699005,216.687252 L25.1699005,255.260987 L17.294791,255.260987 L17.294791,196.364894 Z M7.82256692,262.613197 L19.5961088,262.613197 L19.5961088,267.746829 L15.9462188,267.746829 C13.9164565,267.746829 12.2779182,269.407303 12.2779182,271.422934 L12.2779182,280.541704 L7.82256692,280.541704 L7.82256692,262.613197 Z M241.815959,280.560154 L215.714412,280.560154 L215.714412,271.441384 C215.714412,269.407303 214.057463,267.765279 212.046112,267.765279 L205.860169,267.765279 L205.860169,262.631646 L241.834369,262.631646 L241.834369,280.560154 L241.815959,280.560154 Z M230.976752,255.260987 L205.823348,255.260987 L205.823348,205.460602 C205.823348,203.426521 204.171002,201.78911 202.155048,201.78911 L159.240073,201.78911 C157.210311,201.78911 155.571773,203.444971 155.571773,205.460602 L155.571773,255.260987 L115.335532,255.260987 L115.335532,206.470724 L132.218,206.470724 C133.851935,206.470724 135.27415,205.391416 135.743618,203.82319 C136.208485,202.254965 135.577924,200.580653 134.197133,199.695067 L99.9811397,177.753748 L114.401197,177.753748 L114.401197,181.047021 C114.401197,183.085714 116.035133,184.723126 118.069498,184.723126 C120.09926,184.723126 121.737798,183.067265 121.737798,181.047021 L121.737798,177.753748 L129.000757,177.753748 L129.000757,181.047021 C129.000757,183.085714 130.634693,184.723126 132.669058,184.723126 C134.69882,184.723126 136.332756,183.067265 136.332756,181.047021 L136.332756,177.753748 L143.614125,177.753748 L143.614125,181.047021 C143.614125,183.085714 145.252664,184.723126 147.282426,184.723126 C149.316791,184.723126 150.950726,183.067265 150.950726,181.047021 L150.950726,177.753748 L158.213685,177.753748 L158.213685,181.047021 C158.213685,183.085714 159.870634,184.723126 161.881986,184.723126 C163.916351,184.723126 165.550287,183.067265 165.550287,181.047021 L165.550287,177.753748 L172.813246,177.753748 L172.813246,181.047021 C172.813246,183.085714 174.470194,184.723126 176.481546,184.723126 C178.511309,184.723126 180.149847,183.067265 180.149847,181.047021 L180.149847,177.753748 L187.431216,177.753748 L187.431216,181.047021 C187.431216,183.085714 189.083563,184.723126 191.099517,184.723126 C193.129279,184.723126 194.767818,183.067265 194.767818,181.047021 L194.767818,177.753748 L202.030776,177.753748 L202.030776,181.047021 C202.030776,183.085714 203.683123,184.723126 205.699077,184.723126 C207.728839,184.723126 209.367378,183.067265 209.367378,181.047021 L209.367378,177.753748 L216.648747,177.753748 L216.648747,181.047021 C216.648747,183.085714 218.301093,184.723126 220.317048,184.723126 C222.34681,184.723126 223.980746,183.067265 223.980746,181.047021 L223.980746,177.753748 L230.939931,177.753748 L230.939931,255.260987 L230.976752,255.260987 Z M232.145821,157.196156 C232.145821,161.6287 231.694763,166.042793 230.958341,170.383088 L203.038754,170.383088 L231.892676,151.250737 C232.053769,153.229468 232.145821,155.212812 232.145821,157.196156 L232.145821,157.196156 Z M244.623566,134.004869 C243.05867,135.07034 241.153179,135.591544 238.939311,135.591544 C229.913543,135.591544 218.195233,127.178475 209.777012,114.655734 C199.062077,98.6736707 196.871222,80.5329917 205.013284,75.0349776 C206.57818,73.9741192 208.502082,73.4483024 210.697539,73.4483024 C219.723308,73.4483024 231.441618,81.8659833 239.859839,94.3841127 C250.593185,110.366176 252.765629,128.511467 244.623566,134.004869 L244.623566,134.004869 Z" id="Fill-8" fill="#D0014D"></path>
                <path d="M200.898528,120.476618 C197.446551,115.319923 194.749407,109.752723 193.092458,104.370019 C192.503321,102.423575 190.450545,101.321204 188.508233,101.916208 C186.565921,102.511211 185.470494,104.563741 186.064234,106.510186 C187.914493,112.584753 190.938425,118.834593 194.786228,124.581678 C197.893007,129.212556 201.418626,133.359129 205.266429,136.942985 C205.96603,137.593338 206.868147,137.916208 207.76566,137.916208 C208.755227,137.916208 209.726383,137.519539 210.462805,136.744651 C211.848198,135.250224 211.756146,132.925561 210.264892,131.555669 C206.849736,128.350032 203.683123,124.618578 200.898528,120.476618 L200.898528,120.476618 Z" id="Fill-9" fill="#D0024D"></path>
                <path d="M214.36584,78.208328 C212.262435,78.208328 210.370752,78.7664318 208.755227,79.8457399 C201.473858,84.7672005 202.891469,98.784369 212.07833,112.441768 C219.019105,122.782832 228.155336,129.44779 235.363064,129.44779 C237.466468,129.44779 239.353549,128.889686 240.973676,127.810378 C248.255046,122.888917 246.814421,108.871749 237.645971,95.1959001 C230.705196,84.8917361 221.573567,78.208328 214.36584,78.208328 L214.36584,78.208328 Z M236.872728,121.73581 C236.495312,121.989494 235.993625,122.114029 235.363064,122.114029 C231.4094,122.114029 224.233891,117.395516 218.176822,108.350545 C210.964492,97.5943626 210.191249,87.7560538 212.869983,85.9525945 C213.247399,85.7035234 213.753689,85.5743754 214.379648,85.5743754 C218.337914,85.5743754 225.508821,90.2975016 231.570492,99.3424728 C238.759809,110.080205 239.533051,119.932351 236.872728,121.73581 L236.872728,121.73581 Z" id="Fill-10" fill="#D0024D"></path>
                <path d="M217.652122,88.512492 C215.659181,88.0604741 213.698458,89.2873799 213.247399,91.2707239 C212.782533,93.2494555 214.020642,95.2143498 215.999776,95.6848174 C217.242487,95.970788 221.07188,98.4384369 224.970312,104.259321 C225.674516,105.324792 226.838982,105.882896 228.026462,105.882896 C228.730666,105.882896 229.448677,105.684561 230.079238,105.250993 C231.768405,104.116336 232.201053,101.828571 231.064202,100.149648 C226.875804,93.9182575 221.73466,89.4488149 217.652122,88.512492 L217.652122,88.512492 Z" id="Fill-11" fill="#D0024D"></path>
                <path d="M223.046411,215.732479 L212.60303,215.732479 C210.568666,215.732479 208.93473,217.388341 208.93473,219.408584 L208.93473,237.443177 C208.93473,239.477258 210.587076,241.119283 212.60303,241.119283 L223.046411,241.119283 C225.080776,241.119283 226.714711,239.463421 226.714711,237.443177 L226.714711,219.408584 C226.714711,217.374504 225.080776,215.732479 223.046411,215.732479 L223.046411,215.732479 Z M219.37811,233.748623 L216.289742,233.748623 L216.289742,223.084689 L219.37811,223.084689 L219.37811,233.748623 Z" id="Fill-12" fill="#D0024D"></path>
                <path d="M88.4561402,209.514926 C81.6258289,209.514926 76.2867716,217.356054 76.2867716,227.337348 C76.2867716,237.337092 81.6258289,245.155157 88.4561402,245.155157 C95.2864514,245.155157 100.630111,237.318642 100.630111,227.337348 C100.630111,217.337604 95.2864514,209.514926 88.4561402,209.514926 L88.4561402,209.514926 Z M88.4561402,237.821397 C86.5322385,237.821397 83.6187702,233.642537 83.6187702,227.355798 C83.6187702,221.064446 86.5322385,216.885586 88.4561402,216.885586 C90.4352735,216.885586 93.2935102,220.95836 93.2935102,227.355798 C93.2935102,233.642537 90.3800419,237.821397 88.4561402,237.821397 L88.4561402,237.821397 Z" id="Fill-13" fill="#D0024D"></path>
            </g>
        </g>
    </g>
</svg>