<?xml version="1.0" encoding="UTF-8" standalone="no"?>
<svg width="320px" height="240px" viewBox="0 0 320 240" version="1.1" xmlns="http://www.w3.org/2000/svg" xmlns:xlink="http://www.w3.org/1999/xlink" xmlns:sketch="http://www.bohemiancoding.com/sketch/ns">
    <!-- Generator: Sketch 3.5.2 (25235) - http://www.bohemiancoding.com/sketch -->
    <title>thumbnail</title>
    <desc>Created with Sketch.</desc>
    <defs></defs>
    <g id="Page-1" stroke="none" stroke-width="1" fill="none" fill-rule="evenodd" sketch:type="MSPage">
        <g id="thumbnail" sketch:type="MSArtboardGroup">
            <g id="Group-Copy-6" sketch:type="MSLayerGroup" transform="translate(165.188679, 123.266585) rotate(5.000000) translate(-165.188679, -123.266585) translate(107.933239, 73.606255)">
                <g id="Group" sketch:type="MSShapeGroup">
                    <path d="M38.2931537,4.39404175 C42.9165305,3.06218759 47.5458713,1.74469305 52.1811763,0.452327828 C52.0774008,0.829267684 51.8495719,1.15355562 51.6861553,1.50656279 C40.7563304,22.2753506 29.8312769,43.0477282 18.9026448,63.816516 C18.7416139,64.0713991 18.6115963,64.3406419 18.5686548,64.6421938 C15.4088702,65.5001807 12.2789062,66.4515051 9.11792876,67.3011156 C8.83284438,67.4423184 8.54537436,67.5823247 8.21734841,67.5703583 C7.31557523,67.8695169 6.3827887,68.0609784 5.47862988,68.3517606 C5.23529426,68.4881769 4.9514027,68.4821938 4.68182501,68.4594577 C4.67943937,68.3158616 4.71403119,68.1830352 4.78917896,68.0609784 C15.9647251,46.8434527 27.1199932,25.6127641 38.2931537,4.39404175 L38.2931537,4.39404175 Z" id="Shape" fill="#D65252"></path>
                    <path d="M53.3859262,0.587547522 C53.4622667,0.595923963 53.6161407,0.609086942 53.6936741,0.615070115 C72.0523923,19.026488 90.3991822,37.4474789 108.761479,55.8553069 C108.866447,56.408152 108.384547,56.817401 108.169839,57.2769086 C107.913383,57.8512932 107.587742,58.4005484 107.147591,58.8540729 C103.331755,65.3422249 98.4089797,71.2368463 92.3816518,75.7649111 C88.1185072,78.9838578 83.3233641,81.5123465 78.2312085,83.1170333 C77.960438,83.2235337 77.7302234,83.4137986 77.4511031,83.4927765 C77.1552833,83.5920972 76.8057866,83.5657712 76.5934643,83.8290308 C76.1294567,83.8146712 75.6964625,83.9510875 75.2419974,84.0109192 C75.2610826,84.2993081 74.9712269,84.2945216 74.7994606,84.155712 C74.6288871,84.2263134 74.4523495,84.2191336 74.2781975,84.1904144 C66.8397616,85.828607 58.9731028,85.5988532 51.5799942,83.7069741 C41.5746061,81.206008 32.4268568,75.906114 24.6281888,69.2193206 C22.9331892,67.7558367 21.2847097,66.2373075 19.7030282,64.6517668 C20.2600759,63.4455593 20.9423699,62.294397 21.5375879,61.1049423 C32.1584719,40.9356684 42.7602708,20.7556248 53.3859262,0.587547522 L53.3859262,0.587547522 Z M55.346925,11.4350389 C55.1477237,11.6815456 55.0892755,12.0046369 54.9974282,12.3002057 C54.6491243,13.6260766 54.4224882,14.999813 54.4761651,16.374746 C54.4785508,16.8127142 54.9580651,16.9754565 55.3171044,17.0281084 C55.9170937,17.0675974 56.537361,16.9012652 57.025225,16.5410782 C57.3043453,16.3400436 57.4570265,15.9738735 57.366372,15.6364225 C57.0967943,14.3356809 56.6160872,13.0768214 55.9874702,11.9101028 C55.8443316,11.6982985 55.6642155,11.2878529 55.346925,11.4350389 L55.346925,11.4350389 Z M61.4720642,19.1461514 C61.1464239,19.707373 61.0772402,20.3703085 60.9269447,20.993755 C60.7432501,21.9654222 60.5917618,22.9574322 60.6263536,23.9506388 C60.6144254,24.3215955 60.9531868,24.5872483 61.2955266,24.6315238 C62.0422329,24.7308445 62.8879435,24.5633157 63.4044353,23.9781614 C63.6954837,23.5748956 63.4950897,23.0591461 63.3948927,22.6259645 C63.0537457,21.4807853 62.6493792,20.3344095 62.0088339,19.3208601 C61.9169867,19.1282019 61.6521802,18.9295606 61.4720642,19.1461514 L61.4720642,19.1461514 Z M49.5605471,28.2453599 C49.2301355,29.5269554 49.0321271,30.8552197 49.0380912,32.1810907 C49.0512122,32.8799252 49.9315146,32.9864256 50.4635131,32.8906949 C51.1016727,32.7770146 52.0117956,32.4443502 51.9676612,31.6545715 C51.7601102,30.3897289 51.2674749,29.184718 50.7092344,28.0383421 C50.5136116,27.7595263 50.3871725,27.276086 49.9804203,27.2808725 C49.7335062,27.5453287 49.6523944,27.907909 49.5605471,28.2453599 L49.5605471,28.2453599 Z M68.9916119,33.7462885 C68.9558273,33.7785977 68.884258,33.8468058 68.8496661,33.879115 C68.3176677,35.1547273 68.1733363,36.5500031 68.0373546,37.9141664 C68.0564397,38.3485447 67.9025657,38.9217326 68.3391385,39.2041383 C68.9081144,39.5152633 69.6071079,39.3632907 70.1808551,39.1347335 C70.6066924,38.9600249 71.0683144,38.5651355 70.9514179,38.0481894 C70.7784588,37.0501963 70.4170338,36.0964786 70.0222098,35.1690869 C69.7752957,34.6832533 69.5832515,34.1471611 69.1908131,33.7570582 C69.1419074,33.754665 69.0417104,33.7486818 68.9916119,33.7462885 L68.9916119,33.7462885 Z M56.3763301,34.4080274 C55.9707707,34.9010408 55.9159009,35.5843191 55.7608341,36.1862262 C55.5628257,37.2296915 55.3886737,38.2923029 55.4196871,39.3561109 C55.4077589,39.7797195 55.8419459,40.0274228 56.2152991,40.0441757 C56.9166783,40.1075973 57.6991693,39.9149392 58.1846477,39.3752571 C58.4589967,39.0581489 58.3242078,38.6118043 58.2442888,38.2468308 C57.9413121,37.1088314 57.5333671,35.9887815 56.9560414,34.9596759 C56.7985889,34.7514615 56.6816924,34.4080274 56.3763301,34.4080274 L56.3763301,34.4080274 Z M79.0363631,37.5479962 C78.8502829,37.7574073 78.7977988,38.0469928 78.7131084,38.3066625 C78.3445265,39.6648426 78.1083479,41.074478 78.1632176,42.48531 C78.1644105,42.9232782 78.642732,43.0848239 79.0017713,43.1374758 C79.6864509,43.1805547 80.4391214,42.9747335 80.9126716,42.4518043 C81.2251908,42.0509317 80.9961691,41.5351823 80.9067075,41.0996073 C80.5798743,39.9783608 80.174315,38.867884 79.5743257,37.8615145 C79.4622004,37.6891991 79.2689633,37.4067934 79.0363631,37.5479962 L79.0363631,37.5479962 Z M47.394383,40.7836958 C47.1522402,41.0864443 47.0806709,41.4825303 46.9768954,41.8463072 C46.72521,42.9125085 46.5319729,44.0002493 46.4973811,45.0975631 C46.4985739,45.4984356 46.4055338,46.0680336 46.8766984,46.2499221 C47.6472612,46.525148 48.6039041,46.3324898 49.193158,45.7533188 C49.4710855,45.5044188 49.4317224,45.0951698 49.3661172,44.7660953 C49.0786471,43.5874104 48.6456529,42.4434278 48.0826411,41.3700467 C47.9251886,41.1331131 47.7462654,40.652066 47.394383,40.7836958 L47.394383,40.7836958 Z M64.3324505,42.5164225 C63.9137701,43.2786787 63.8159587,44.1653848 63.6608919,45.0090121 C63.5547308,45.8143471 63.4068209,46.6292552 63.4819687,47.4453599 C63.4891256,47.762468 63.7980664,47.9646992 64.0771867,48.0317108 C64.7964581,48.1513742 65.5956487,47.9898286 66.1443466,47.490832 C66.4198884,47.2658647 66.4306238,46.8757619 66.3566689,46.5562605 C66.1049835,45.4206544 65.6874959,44.3245372 65.1757754,43.2834652 C64.9694173,42.9974696 64.7809515,42.2770956 64.3324505,42.5164225 L64.3324505,42.5164225 Z M73.1533667,46.1194889 C72.9159952,46.3815518 72.8480043,46.7489186 72.750193,47.0791897 C72.4543732,48.2710377 72.2539791,49.4928015 72.2193873,50.721745 C72.1847955,51.0915051 72.3434408,51.5354565 72.7358791,51.638367 C73.4384511,51.8453848 74.2233277,51.6407603 74.810196,51.2255282 C75.2360333,50.9359426 75.1918989,50.3723278 75.0738096,49.9355562 C74.7338554,48.7137924 74.3008611,47.503995 73.6507733,46.4102711 C73.5481906,46.253512 73.3633033,45.9962355 73.1533667,46.1194889 L73.1533667,46.1194889 Z M84.1153977,49.4365596 C83.9424386,49.6866562 83.8708693,49.991798 83.7778292,50.2789903 C83.4724668,51.4457089 83.2983149,52.6459333 83.2398666,53.8509442 C83.2482164,54.1524961 83.1945394,54.5186662 83.437875,54.7472234 C83.6752465,54.970994 84.019972,54.9913368 84.32772,55.0056964 C84.9837719,54.9721907 85.7161644,54.7651729 86.100253,54.1907884 C86.267248,53.6343533 86.0298765,53.0623621 85.8879307,52.5274665 C85.5527478,51.5330632 85.19013,50.5302835 84.6211541,49.6411841 C84.5269212,49.4748519 84.2967066,49.2379183 84.1153977,49.4365596 L84.1153977,49.4365596 Z M38.5484175,51.2374945 C38.2466337,51.6718728 38.1631361,52.2139482 38.0378899,52.7177313 C37.8219892,53.8569273 37.5929674,55.0116796 37.6597654,56.1783982 C37.6538013,56.4440511 37.8756661,56.6331193 38.090374,56.7467996 C38.6891705,56.9538173 39.3440296,56.804238 39.9034629,56.5517482 C40.3269146,56.3626799 40.7098104,55.9127454 40.565479,55.4221252 C40.3436141,54.3858398 39.9774179,53.3842567 39.542038,52.4197694 C39.3225588,52.0009473 39.1507925,51.5079339 38.7619326,51.2207416 C38.7070628,51.2231349 38.6020945,51.232708 38.5484175,51.2374945 L38.5484175,51.2374945 Z M51.0265249,51.3966469 C50.7700683,51.5964848 50.6853779,51.9315425 50.5875665,52.2283078 C50.2726616,53.4835774 50.0543753,54.7711561 50.029326,56.0671112 C50.0376758,56.3555001 50.0281332,56.7312433 50.3287242,56.8856092 C50.7676826,57.1213462 51.3008739,57.0627111 51.7696528,56.968177 C52.2503599,56.8341539 52.7990579,56.5720909 52.9505462,56.0527516 C52.9970663,55.6387161 52.8575062,55.2366469 52.7489594,54.846544 C52.4364401,53.8282081 52.0642798,52.8194453 51.5310885,51.8944468 C51.3962996,51.7017887 51.2853672,51.4325459 51.0265249,51.3966469 L51.0265249,51.3966469 Z M60.4247668,52.5621689 C60.1349111,52.9606481 60.0669203,53.4775942 59.9392883,53.9454783 C59.6780604,55.108607 59.4967515,56.3040448 59.5528141,57.498286 C59.5528141,57.7184668 59.700724,57.9242879 59.9035037,58.0068557 C60.590569,58.3215705 61.4136159,58.1205359 62.0243406,57.72086 C62.3452096,57.5258086 62.5444108,57.1321159 62.4418282,56.7587659 C62.1710577,55.4580243 61.6903505,54.2015581 61.0629263,53.0336428 C60.9197877,52.8254284 60.7384789,52.4101963 60.4247668,52.5621689 L60.4247668,52.5621689 Z M93.7402757,55.6949579 C93.4039,56.1915612 93.3335235,56.8185976 93.1868064,57.3905889 C92.9673273,58.4555936 92.8158389,59.5433343 92.8671302,60.6334683 C92.8695159,61.0702399 93.3490302,61.2341788 93.7080695,61.2868307 C94.3080588,61.325123 94.9307117,61.1599875 95.4161901,60.7998005 C95.697696,60.5987659 95.8479916,60.2325958 95.7561443,59.8951449 C95.4901451,58.5932066 95.0046666,57.3367404 94.3772425,56.1688251 C94.2352967,55.9570208 94.0563734,55.5453786 93.7402757,55.6949579 L93.7402757,55.6949579 Z M70.2977516,56.8544967 C70.1379135,56.9849298 70.0854294,57.1955375 70.0138601,57.3786226 C69.6106864,58.6458585 69.4424985,59.9669429 69.3470728,61.2880274 C69.338723,61.5632533 69.3279876,61.858822 69.4484626,62.1160984 C69.7633675,62.4990214 70.3228009,62.5313306 70.7784588,62.4571392 C71.2591659,62.3626051 71.7744648,62.2034527 72.1048764,61.8217263 C72.375647,61.4998317 72.268293,61.0487005 72.1824099,60.6777438 C71.8758547,59.5433343 71.4798379,58.4208912 70.9025122,57.3953755 C70.7462526,57.1883577 70.6186207,56.7862885 70.2977516,56.8544967 L70.2977516,56.8544967 Z M43.5069772,61.3203365 C43.2397851,61.7295855 43.1527091,62.2237955 43.0298485,62.6916796 C42.7769703,63.8990838 42.5479486,65.1352072 42.6469528,66.3737238 C42.7042082,66.7518603 43.1372025,66.8810969 43.46165,66.9253723 C44.1499081,66.9528949 44.9240493,66.775793 45.394021,66.2349142 C45.6850695,65.859171 45.4739401,65.3697475 45.3987923,64.9581053 C45.0958156,63.8607915 44.6842922,62.7850171 44.1284373,61.7906138 C43.9876843,61.5728264 43.829039,61.2054596 43.5069772,61.3203365 L43.5069772,61.3203365 Z M54.5429632,62.0718229 C54.3151342,62.2824306 54.2328295,62.5923589 54.1445607,62.8771579 C53.8356199,64.0235338 53.6519254,65.2022187 53.5720063,66.3856902 C53.5720063,66.739894 53.5040155,67.1443564 53.7223019,67.4518915 C54.0753771,67.7713929 54.5954473,67.7701963 55.0403698,67.7007915 C55.5795252,67.6002742 56.1711647,67.38488 56.4490922,66.873917 C56.5755313,66.5412527 56.4467065,66.183459 56.3727516,65.8543845 C56.0542682,64.7175817 55.6582514,63.5927453 55.0666119,62.566033 C54.9365943,62.3685883 54.7994198,62.1137052 54.5429632,62.0718229 L54.5429632,62.0718229 Z M31.6789576,62.9046805 C31.3747881,63.4120535 31.2757839,64.0115674 31.1386094,64.5811654 C30.9370225,65.7203614 30.7020367,66.8858834 30.8654532,68.0466188 C31.0515334,68.4175755 31.5071913,68.4869803 31.8805445,68.484587 C32.4864979,68.4546712 33.141357,68.2787659 33.5540733,67.8025054 C33.8618212,67.4746276 33.6948262,66.988794 33.6137143,66.6034777 C33.3059664,65.4702648 32.8908644,64.3561981 32.3147316,63.331879 C32.1680145,63.1248613 31.9938625,62.7036459 31.6789576,62.9046805 L31.6789576,62.9046805 Z M82.0160316,63.901477 C81.7476467,64.274827 81.6665349,64.7403178 81.5484455,65.1746961 C81.2633611,66.406033 81.0403035,67.6720722 81.1321508,68.9405048 C81.2263837,69.4335182 81.819216,69.5412153 82.2402821,69.5136927 C82.8307288,69.4335182 83.4975161,69.3102648 83.8839903,68.8052851 C84.1153977,68.5204861 84.0235505,68.1244001 83.9567524,67.7965222 C83.6394619,66.5939046 83.2088533,65.414023 82.5945501,64.3310688 C82.4657254,64.137214 82.3058873,63.8081396 82.0160316,63.901477 L82.0160316,63.901477 Z M62.376223,70.3166344 C62.175829,70.5607478 62.1173807,70.8862324 62.0243406,71.1818011 C61.6760367,72.5076721 61.4494006,73.8814085 61.5042704,75.2563415 C61.4994991,75.6488376 61.9074441,75.8247428 62.2318916,75.8905577 C62.8688583,75.9826986 63.5356456,75.8020068 64.0521374,75.421477 C64.3300649,75.2192458 64.482746,74.8542723 64.3920916,74.5144281 C64.1237067,73.2148831 63.640614,71.9572203 63.0108041,70.7905017 C62.8724368,70.579894 62.6911279,70.1658585 62.376223,70.3166344 L62.376223,70.3166344 Z M73.6984862,70.8395637 C73.3633033,71.3373636 73.291734,71.9620068 73.1450169,72.5351947 C72.9267306,73.6001994 72.7728566,74.6879401 72.8253407,75.7768775 C72.8193766,76.1705702 73.2273216,76.3464755 73.5541548,76.4122904 C74.1887359,76.5056279 74.856716,76.3237394 75.3744006,75.9432097 C75.6535209,75.7397818 75.8050092,75.3760049 75.7143548,75.0361607 C75.4555125,73.7653349 74.9807695,72.5411779 74.381973,71.3936054 C74.2257134,71.1650482 74.0503686,70.6899844 73.6984862,70.8395637 L73.6984862,70.8395637 Z M49.6225738,72.7984543 C49.3327182,73.1981302 49.2742699,73.7174696 49.139481,74.184157 C48.8758675,75.3460891 48.6969442,76.5403303 48.7506212,77.7357681 C48.7458499,78.1294608 49.1537949,78.3053661 49.4794352,78.3699844 C50.1140163,78.4645185 50.7819965,78.28263 51.2984883,77.9009036 C51.5799942,77.6998691 51.7302897,77.3348955 51.6396352,76.996248 C51.3724432,75.6943097 50.8881576,74.4390401 50.2595406,73.2711249 C50.1187876,73.0605172 49.9374787,72.648875 49.6225738,72.7984543 L49.6225738,72.7984543 Z" id="Shape" fill="#F66F6F"></path>
                    <path d="M110.25012,57.3941788 C110.328846,57.3965721 110.485106,57.4025553 110.565025,57.4049485 C111.850887,58.6889373 113.129592,59.9836958 114.417839,61.2664879 C114.632547,61.4435898 114.420225,61.7080461 114.339113,61.8959177 C112.132393,66.0937114 109.511764,70.0904705 106.492732,73.7366157 C106.306652,74.1039825 105.935684,74.3145902 105.712627,74.6532377 C105.435892,75.1438578 104.906279,75.4250669 104.647437,75.92885 C103.557198,77.0536864 102.435946,78.1498036 101.334971,79.2650669 C100.887663,79.6886755 100.501189,80.1828856 99.971576,80.5035836 C99.3405734,81.1904518 98.5568895,81.6954315 97.8865238,82.3320411 C95.6130057,84.093487 93.2762681,85.7962978 90.7510646,87.1820005 C90.1498825,87.6103957 89.4258397,87.8222 88.8246576,88.2529884 C88.2711884,88.6095855 87.6199078,88.7543782 87.0580888,89.0894359 C85.3129907,89.9234901 83.4903592,90.5971953 81.6736918,91.252951 C80.903129,91.3893673 80.2065211,91.822549 79.4144876,91.8560548 C79.4097163,92.2006855 79.0733406,92.0738422 78.8717537,91.9852913 C78.8872604,92.4029167 78.3552619,92.1276908 78.1011909,92.2258148 C77.4928519,92.4459956 76.8666205,92.454372 76.2391963,92.5991648 C70.2679311,93.8807603 64.0831508,94.1212838 58.0331593,93.3039825 C52.2837589,92.5692489 46.6703402,90.9095169 41.3622838,88.5904393 C32.2861038,84.5769273 24.1093114,78.678716 17.0549641,71.7166967 C16.8223639,71.47019 16.487181,71.2715487 16.3607419,70.9508507 C17.1480042,69.4239451 17.9531588,67.9042193 18.7618919,66.3892801 C18.8119904,66.3916734 18.9098018,66.3952633 18.9599003,66.3964599 C26.0893953,73.4996821 34.4140977,79.5247366 43.7610482,83.3168712 C48.9021095,85.4109815 54.3377978,86.7907011 59.8665262,87.2873044 C61.3778313,87.4536366 62.8998717,87.3961981 64.415948,87.4153443 C65.1471477,87.3985914 65.8819258,87.4380803 66.6095471,87.3890183 C67.2954195,87.1449049 68.0528613,87.4332938 68.7375409,87.1724275 C69.1335577,87.1173823 69.5558166,87.2274727 69.9375195,87.0683203 C70.2571957,86.9642131 70.5995355,87.0862698 70.9275615,87.0419943 C75.7382112,86.4005982 80.4522424,85.0268619 84.8430189,82.9483078 C92.1025315,79.5486693 98.3946658,74.2679214 103.38066,68.0083265 C105.997711,64.6984356 108.321328,61.1492178 110.25012,57.3941788 L110.25012,57.3941788 Z" id="Shape" fill="#A5D56E"></path>
                    <path d="M17.5750343,66.5125334 L17.5988908,66.6298036 C16.9571527,67.8336179 16.32615,69.0458086 15.6879905,70.2520161 C15.5031031,70.6349392 15.235911,70.9855531 15.1655346,71.4175381 C14.7385044,71.4462573 14.3544158,71.6508818 13.9381211,71.7298597 C10.2857012,72.7625552 6.63328124,73.8000373 2.98086132,74.8375194 C2.38683614,74.9835088 1.81308892,75.247965 1.19162884,75.2539482 C2.03376093,73.6684075 2.84845812,72.0673106 3.71086818,70.4937363 C4.44087504,70.2675724 5.176846,70.0581614 5.92116671,69.8786662 C5.91997389,69.8272109 5.91520261,69.7243003 5.91400978,69.6740417 C6.16211669,69.6895979 6.39471691,69.6070302 6.62612431,69.525659 C9.66662672,68.6557058 12.7130932,67.8156684 15.7476315,66.9301589 C16.3690916,66.8344281 16.9368747,66.504157 17.5750343,66.5125334 Z" id="Shape" fill="#A5D56E"></path>
                    <path d="M15.4076774,72.5651106 C15.6319278,72.4897226 15.9229763,72.5148519 16.0708862,72.7194764 C18.0497773,74.8327329 20.2230984,76.7401682 22.4369754,78.5961483 C29.3708477,84.3316173 37.194565,89.0774695 45.7065403,92.0379432 C49.9100438,93.4751012 54.269807,94.523353 58.6820543,94.9708943 C59.1651471,95.1085072 59.6780604,94.9864505 60.1563819,95.1491928 C60.8362902,95.2233841 61.5293196,95.1240635 62.2068423,95.2509067 C63.0692524,95.3430476 63.9400122,95.2868058 64.8060007,95.3131317 C65.6409759,95.2688563 66.4938434,95.3813399 67.3156975,95.1826986 C67.9657853,95.1384231 68.6325726,95.2437269 69.2683465,95.0510688 C70.9645389,95.0235462 72.622561,94.660966 74.3032468,94.4563415 C74.2996683,94.5173698 74.2913185,94.6370333 74.2841616,94.6992583 C71.673075,95.426812 69.0631812,96.169922 66.4568659,96.9142286 C63.1754135,97.8870925 59.8200062,98.6553318 56.4133075,98.9891928 C55.8371747,99.1256091 55.2324141,99.0191087 54.6586669,99.1806543 C53.9179246,99.1962106 53.1759895,99.2129635 52.4412114,99.3098908 C51.2686677,99.3254471 50.0937384,99.3218572 48.9211947,99.3122841 C48.0778698,99.1363788 47.20711,99.2680086 46.3613994,99.1303957 C38.5734668,98.523702 30.9513364,96.2177874 23.9554374,92.752334 C15.8060798,88.7172826 8.47261224,83.1445559 2.03137528,76.7401682 C1.88107976,76.6252913 1.94310648,76.3931442 2.12083691,76.3524586 C6.54620526,75.0780429 10.9858875,73.8467061 15.4076774,72.5651106 L15.4076774,72.5651106 Z" id="Shape" fill="#579B0A"></path>
                </g>
            </g>
            <circle id="Oval-4-Copy-4" stroke="#FFF2F2" stroke-width="131" sketch:type="MSShapeGroup" cx="159.5" cy="119.5" r="160.5"></circle>
        </g>
    </g>
</svg>