<?xml version="1.0" encoding="UTF-8" standalone="no"?>
<svg width="320px" height="240px" viewBox="0 0 320 240" version="1.1" xmlns="http://www.w3.org/2000/svg" xmlns:xlink="http://www.w3.org/1999/xlink">
    <defs></defs>
    <g id="Page-1" stroke="none" stroke-width="1" fill="none" fill-rule="evenodd">
        <g id="Artboard-1">
            <g id="npm-logo" transform="translate(55.000000, 79.000000)">
                <path d="M0,0 L0,70.2857143 L58.6111111,70.2857143 L58.6111111,82 L105.5,82 L105.5,70.2857143 L211,70.2857143 L211,0" id="Shape" fill="#CB3837"></path>
                <path d="M11.7222222,11.7142857 L11.7222222,58.5714286 L35.1666667,58.5714286 L35.1666667,23.4285714 L46.8888889,23.4285714 L46.8888889,58.5714286 L58.6111111,58.5714286 L58.6111111,11.7142857 L70.3333333,11.7142857 L70.3333333,70.2857143 L93.7777778,70.2857143 L93.7777778,23.4285714 L105.5,23.4285714 L105.5,46.8571429 L93.7777778,46.8571429 L93.7777778,58.5714286 L117.222222,58.5714286 L117.222222,11.7142857 L128.944444,11.7142857 L128.944444,58.5714286 L152.388889,58.5714286 L152.388889,23.4285714 L164.111111,23.4285714 L164.111111,58.5714286 L175.833333,58.5714286 L175.833333,23.4285714 L187.555556,23.4285714 L187.555556,58.5714286 L199.277778,58.5714286 L199.277778,11.7142857" id="Shape" fill="#FFFFFF"></path>
            </g>
        </g>
    </g>
</svg>