<?xml version="1.0" encoding="UTF-8" standalone="no"?>
<svg width="320px" height="240px" viewBox="0 0 320 240" version="1.1" xmlns="http://www.w3.org/2000/svg" xmlns:xlink="http://www.w3.org/1999/xlink" xmlns:sketch="http://www.bohemiancoding.com/sketch/ns">
    <!-- Generator: Sketch 3.4.4 (17249) - http://www.bohemiancoding.com/sketch -->
    <title>Artboard 1</title>
    <desc>Created with Sketch.</desc>
    <defs></defs>
    <g id="Page-1" stroke="none" stroke-width="1" fill="none" fill-rule="evenodd" sketch:type="MSPage">
        <g id="Artboard-1" sketch:type="MSArtboardGroup">
            <g id="npm-logo" sketch:type="MSLayerGroup" transform="translate(-39.000000, -29.000000)">
                <rect id="Rectangle-1" stroke="#979797" fill="#CB3837" sketch:type="MSShapeGroup" x="0" y="0" width="419" height="306"></rect>
                <path d="M94,118 L94,188.285714 L152.611111,188.285714 L152.611111,200 L199.5,200 L199.5,188.285714 L305,188.285714 L305,118" id="Shape" fill="#CB3837" sketch:type="MSShapeGroup"></path>
                <path d="M105.722222,129.714286 L105.722222,176.571429 L129.166667,176.571429 L129.166667,141.428571 L140.888889,141.428571 L140.888889,176.571429 L152.611111,176.571429 L152.611111,129.714286 L164.333333,129.714286 L164.333333,188.285714 L187.777778,188.285714 L187.777778,141.428571 L199.5,141.428571 L199.5,164.857143 L187.777778,164.857143 L187.777778,176.571429 L211.222222,176.571429 L211.222222,129.714286 L222.944444,129.714286 L222.944444,176.571429 L246.388889,176.571429 L246.388889,141.428571 L258.111111,141.428571 L258.111111,176.571429 L269.833333,176.571429 L269.833333,141.428571 L281.555556,141.428571 L281.555556,176.571429 L293.277778,176.571429 L293.277778,129.714286" id="Shape" fill="#FFFFFF" sketch:type="MSShapeGroup"></path>
            </g>
        </g>
    </g>
</svg>