<?xml version="1.0" encoding="UTF-8" standalone="no"?>
<svg width="800px" height="300px" viewBox="0 0 800 300" version="1.1" xmlns="http://www.w3.org/2000/svg" xmlns:xlink="http://www.w3.org/1999/xlink">
    <defs></defs>
    <g id="Page-1" stroke="none" stroke-width="1" fill="none" fill-rule="evenodd">
        <g id="Artboard-1">
            <g id="Oval-1-+-{}" transform="translate(530.000000, 32.000000)">
                <path d="M120,240 C186.27417,240 240,186.27417 240,120 C240,53.72583 186.27417,0 120,0 C53.72583,0 0,53.72583 0,120 C0,186.27417 53.72583,240 120,240 Z" id="Oval-1" fill="#28B0DD"></path>
                <g id="{}" transform="translate(50.642202, 59.449541)" fill="#FFFFFF">
                    <path d="M35.7798165,101.697248 C35.7798165,105.412863 37.0642073,108.130725 39.6330275,109.850917 C42.2018477,111.57111 46.7889578,112.477064 53.3944954,112.568807 L53.3944954,122.889908 C33.3026518,122.614678 23.2568807,115.894561 23.2568807,102.729358 L23.2568807,79.7477064 C23.2568807,71.0779383 15.5046647,66.7431193 0,66.7431193 L0,56.0779817 C15.5046647,56.0779817 23.2568807,51.7431626 23.2568807,43.0733945 L23.2568807,20.1605505 C23.2568807,6.99534702 33.3026518,0.275230734 53.3944954,0 L53.3944954,10.2522936 C46.7889578,10.3440372 42.2018477,11.2499914 39.6330275,12.9701835 C37.0642073,14.6903756 35.7798165,17.4082383 35.7798165,21.1238532 L35.7798165,43.9678899 C35.7798165,53.4633502 30.4358333,59.1513667 19.7477064,61.0321101 L19.7477064,61.8577982 C30.4358333,63.7385415 35.7798165,69.426558 35.7798165,78.9220183 L35.7798165,101.697248 Z M102.316514,78.9220183 C102.316514,69.426558 107.683433,63.7385415 118.417431,61.8577982 L118.417431,61.0321101 C107.683433,59.1513667 102.316514,53.4633502 102.316514,43.9678899 L102.316514,21.1238532 C102.316514,17.4082383 101.020655,14.6789078 98.4288991,12.9357798 C95.837143,11.1926518 91.2615007,10.2981654 84.7018349,10.2522936 L84.7018349,0 C104.83955,0.275230734 114.908257,6.99534702 114.908257,20.1605505 L114.908257,43.0733945 C114.908257,51.7431626 122.660473,56.0779817 138.165138,56.0779817 L138.165138,66.7431193 C122.660473,66.7431193 114.908257,71.0779383 114.908257,79.7477064 L114.908257,102.729358 C114.908257,115.894561 104.83955,122.614678 84.7018349,122.889908 L84.7018349,112.568807 C91.2615007,112.522936 95.837143,111.628449 98.4288991,109.885321 C101.020655,108.142193 102.316514,105.412863 102.316514,101.697248 L102.316514,78.9220183 Z"></path>
                </g>
            </g>
            <g id="Oval-1-Copy-+-[]" transform="translate(30.000000, 32.000000)">
                <path d="M120,240 C186.27417,240 240,186.27417 240,120 C240,53.72583 186.27417,0 120,0 C53.72583,0 0,53.72583 0,120 C0,186.27417 53.72583,240 120,240 Z" id="Oval-1-Copy" fill="#28B0DD"></path>
                <path d="M100.183486,182.33945 L63.853211,182.33945 L63.853211,59.4495413 L100.183486,59.4495413 L100.183486,69.7018349 L76.3761468,69.7018349 L76.3761468,172.018349 L100.183486,172.018349 L100.183486,182.33945 Z M139.954128,172.018349 L163.761468,172.018349 L163.761468,69.7018349 L139.954128,69.7018349 L139.954128,59.4495413 L176.284404,59.4495413 L176.284404,182.33945 L139.954128,182.33945 L139.954128,172.018349 Z" id="[]" fill="#FFFFFF"></path>
            </g>
            <text id="versus" font-family="Droid Sans Mono" font-size="44" font-weight="normal" fill="#A2A2A2">
                <tspan x="321.287109" y="164">versus</tspan>
            </text>
        </g>
    </g>
</svg>