<?xml version="1.0" encoding="UTF-8" standalone="no"?>
<svg width="320px" height="240px" viewBox="0 0 320 240" version="1.1" xmlns="http://www.w3.org/2000/svg" xmlns:xlink="http://www.w3.org/1999/xlink" xmlns:sketch="http://www.bohemiancoding.com/sketch/ns">
    <!-- Generator: Sketch 3.3.3 (12072) - http://www.bohemiancoding.com/sketch -->
    <title>Artboard 1</title>
    <desc>Created with Sketch.</desc>
    <defs></defs>
    <g id="Page-1" stroke="none" stroke-width="1" fill="none" fill-rule="evenodd" sketch:type="MSPage">
        <g id="Artboard-1" sketch:type="MSArtboardGroup">
            <rect id="Rectangle-6" stroke="#979797" fill="#AF0404" sketch:type="MSShapeGroup" x="-20" y="-41" width="413" height="336"></rect>
            <g id="moby-logo" sketch:type="MSLayerGroup" transform="translate(73.000000, 33.000000)">
                <rect id="Rectangle-path" fill="#AF0404" sketch:type="MSShapeGroup" x="0" y="0" width="175" height="175"></rect>
                <path d="M147.143555,122.568359 L113.920898,122.568359 L113.920898,117.988281 C114.980469,117.885742 116.040039,117.817383 117.133789,117.714844 C118.227539,117.612305 119.18457,117.441406 120.004883,117.167969 C121.303711,116.757812 122.260742,116.040039 122.875977,114.980469 C123.491211,113.955078 123.798828,112.587891 123.798828,110.947266 L123.798828,75.7080078 C123.798828,70.9228516 122.705078,67.1972656 120.517578,64.5996094 C118.330078,62.0019531 115.595703,60.703125 112.314453,60.703125 C110.058594,60.703125 107.939453,61.0449219 105.957031,61.7285156 C103.974609,62.4121094 102.163086,63.4033203 100.488281,64.6337891 C99.1552734,65.6591797 98.0273437,66.7529297 97.1386719,67.9150391 C96.25,69.0771484 95.5664062,70.0683594 95.0878906,70.8544922 L95.0878906,110.229492 C95.0878906,111.835938 95.3613281,113.168945 95.9082031,114.194336 C96.4550781,115.219727 97.4121094,116.040039 98.7451172,116.586914 C99.8046875,116.99707 100.761719,117.304688 101.616211,117.509766 C102.470703,117.714844 103.598633,117.851562 104.96582,117.954102 L104.96582,122.53418 L72.4267578,122.53418 L72.4267578,117.954102 C73.4863281,117.851562 74.5117187,117.783203 75.5029297,117.680664 C76.4941406,117.578125 77.4169922,117.407227 78.2373047,117.133789 C79.5361328,116.723633 80.4931641,116.005859 81.1083984,114.946289 C81.7236328,113.920898 82.03125,112.553711 82.03125,110.913086 L82.03125,75.7080078 C82.03125,70.9228516 80.9375,67.1972656 78.75,64.5996094 C76.5625,62.0019531 73.828125,60.703125 70.5126953,60.703125 C68.2568359,60.703125 66.1035156,61.0449219 64.1210937,61.7626953 C62.1386719,62.4804687 60.2929687,63.4716797 58.6523437,64.7021484 C57.3193359,65.7275391 56.1914062,66.8554688 55.2685547,68.1201172 C54.3457031,69.3847656 53.6621094,70.3417969 53.1835937,70.9912109 L53.1835937,110.092773 C53.1835937,111.665039 53.4912109,112.963867 54.140625,114.023438 C54.7900391,115.083008 55.7470703,115.90332 57.0458984,116.450195 C58.0029297,116.928711 58.9941406,117.270508 60.0195312,117.475586 C61.0449219,117.714844 62.1728516,117.851563 63.4033203,117.954102 L63.4033203,122.53418 L30.2490234,122.53418 L30.2490234,117.954102 C31.3085937,117.851562 32.4023437,117.783203 33.5302734,117.680664 C34.6582031,117.578125 35.6494141,117.407227 36.4697266,117.133789 C37.7685547,116.723633 38.7255859,116.005859 39.3408203,114.946289 C39.9560547,113.886719 40.2636719,112.553711 40.2636719,110.913086 L40.2636719,68.5302734 C40.2636719,67.0605469 39.921875,65.7275391 39.2724609,64.5654297 C38.5888672,63.4033203 37.6660156,62.3779297 36.4697266,61.5576172 C35.5810547,61.0107422 34.5214844,60.5664062 33.2226562,60.2246094 C31.9238281,59.8828125 30.5908203,59.6435547 29.2236328,59.5751953 L29.2236328,54.9951172 L52.0556641,53.4570312 L53.0126953,54.4140625 L53.0126953,64.1894531 L53.4912109,64.1894531 C54.6533203,63.0273437 56.0546875,61.6601562 57.7294922,60.0878906 C59.4042969,58.515625 60.9423828,57.2509766 62.3779297,56.2939453 C63.984375,55.2001953 66.0009766,54.2773437 68.4277344,53.5253906 C70.8544922,52.7734375 73.4863281,52.4316406 76.2890625,52.4316406 C80.7324219,52.4316406 84.5263672,53.6279297 87.7050781,55.9863281 C90.8837891,58.3789062 93.1738281,61.25 94.5751953,64.5996094 C96.2158203,62.9931641 97.6855469,61.5576172 98.9501953,60.3271484 C100.214844,59.0966797 101.889648,57.7978516 103.974609,56.4306641 C105.717773,55.234375 107.802734,54.2773437 110.161133,53.5253906 C112.519531,52.7734375 115.185547,52.4316406 118.09082,52.4316406 C123.867187,52.4316406 128.413086,54.3115234 131.762695,58.1054688 C135.112305,61.8994141 136.821289,67.7099609 136.821289,75.5371094 L136.821289,110.229492 C136.821289,111.835938 137.094727,113.168945 137.641602,114.194336 C138.188477,115.219727 139.145508,116.040039 140.478516,116.586914 C141.538086,116.99707 142.597656,117.304688 143.623047,117.509766 C144.648437,117.714844 145.810547,117.851562 147.109375,117.954102 L147.109375,122.568359 L147.143555,122.568359 Z" id="Shape" stroke="#FFFFFF" stroke-width="3" fill="#FFFFFF" sketch:type="MSShapeGroup"></path>
            </g>
        </g>
    </g>
</svg>