<svg xmlns="http://www.w3.org/2000/svg" width="800" height="300" fill="none">
  <circle cx="650" cy="152" r="120" fill="#28B0DC" />
  <path
    fill="#fff"
    d="M616.422 193.147c0 3.715 1.284 6.433 3.853 8.153 2.569 1.721 7.156 2.627 13.762 2.718v10.321c-20.092-.275-30.138-6.995-30.138-20.16v-22.982c0-8.67-7.752-13.004-23.257-13.004v-10.665c15.505 0 23.257-4.335 23.257-13.005V111.61c0-13.165 10.046-19.885 30.138-20.16v10.252c-6.606.092-11.193.998-13.762 2.718-2.569 1.72-3.853 4.438-3.853 8.153v22.844c0 9.496-5.344 15.184-16.032 17.065v.825c10.688 1.881 16.032 7.569 16.032 17.065v22.775Zm66.537-22.775c0-9.496 5.367-15.184 16.101-17.065v-.825c-10.734-1.881-16.101-7.569-16.101-17.065v-22.844c0-3.715-1.296-6.445-3.888-8.188-2.592-1.743-7.167-2.637-13.727-2.683V91.45c20.138.275 30.206 6.995 30.206 20.16v22.913c0 8.67 7.753 13.005 23.257 13.005v10.665c-15.504 0-23.257 4.334-23.257 13.004v22.982c0 13.165-10.068 19.885-30.206 20.16v-10.321c6.56-.046 11.135-.94 13.727-2.683 2.592-1.743 3.888-4.473 3.888-8.188v-22.775Z"
  />
  <circle cx="150" cy="152" r="120" fill="#28B0DC" />
  <path
    fill="#fff"
    d="M130.183 214.339h-36.33V91.449h36.33v10.253h-23.807v102.316h23.807v10.321Zm39.771-10.321h23.807V101.702h-23.807V91.45h36.33v122.889h-36.33v-10.321Z"
  />
  <path
    fill="#A2A2A2"
    d="m344.141 165-8.057-23.59h4.039l4.275 13.127c.158.473.344 1.081.559 1.826.215.745.43 1.504.645 2.278.214.773.408 1.504.58 2.191.186.688.308 1.21.365 1.568h.15c.072-.358.194-.88.365-1.568.172-.687.366-1.418.581-2.191.214-.774.429-1.533.644-2.278.215-.745.401-1.353.559-1.826l4.275-13.127h4.039L349.104 165h-4.963Zm26.103.43c-1.575 0-3.015-.265-4.318-.795a9.354 9.354 0 0 1-3.373-2.321c-.931-1.016-1.655-2.277-2.17-3.781-.516-1.504-.774-3.222-.774-5.156 0-1.948.237-3.688.709-5.221.473-1.532 1.139-2.829 1.998-3.888.86-1.075 1.884-1.891 3.073-2.45 1.203-.558 2.528-.838 3.974-.838 1.418 0 2.693.258 3.825.774a7.914 7.914 0 0 1 2.878 2.148c.788.917 1.39 2.027 1.805 3.33.43 1.289.645 2.722.645 4.297v2.428h-14.868c.072 2.764.652 4.798 1.741 6.102 1.103 1.303 2.735 1.955 4.898 1.955.731 0 1.404-.036 2.02-.108a16.75 16.75 0 0 0 1.804-.301 15.668 15.668 0 0 0 1.698-.515 32.116 32.116 0 0 0 1.654-.709v3.48c-.573.272-1.139.509-1.697.709a12.71 12.71 0 0 1-1.698.494 14.09 14.09 0 0 1-1.804.28c-.616.057-1.289.086-2.02.086Zm-.967-21.205c-1.632 0-2.929.558-3.888 1.675-.946 1.118-1.497 2.743-1.655 4.877h10.571c0-.974-.101-1.862-.301-2.664-.186-.816-.487-1.511-.902-2.084a4.092 4.092 0 0 0-1.547-1.332c-.631-.315-1.39-.472-2.278-.472Zm25.395-3.245c.415 0 .881.022 1.396.065.516.029.96.079 1.332.15l-.515 3.61a16.201 16.201 0 0 0-1.246-.172 8.727 8.727 0 0 0-1.182-.086c-.902 0-1.726.186-2.471.558a5.486 5.486 0 0 0-1.933 1.569c-.53.673-.946 1.489-1.246 2.449-.287.945-.43 1.998-.43 3.158V165h-3.91v-23.59h3.179l.473 4.319h.172c.358-.616.738-1.211 1.139-1.784a8.641 8.641 0 0 1 1.375-1.504 6.203 6.203 0 0 1 1.718-1.052c.631-.272 1.347-.409 2.149-.409Zm21.484 17.553c0 1.146-.207 2.149-.623 3.008a5.857 5.857 0 0 1-1.804 2.17c-.774.573-1.712 1.003-2.815 1.289-1.103.286-2.342.43-3.717.43-1.561 0-2.9-.129-4.017-.387-1.118-.244-2.099-.609-2.944-1.096v-3.566c.444.229.938.458 1.483.687a19.02 19.02 0 0 0 3.566 1.01c.645.1 1.282.151 1.912.151.931 0 1.719-.079 2.364-.237.658-.157 1.188-.379 1.589-.666.416-.301.717-.659.903-1.074.186-.43.279-.902.279-1.418 0-.444-.072-.845-.215-1.203-.143-.358-.408-.709-.795-1.053-.372-.358-.888-.716-1.547-1.074a31.617 31.617 0 0 0-2.535-1.203 43.807 43.807 0 0 1-2.793-1.311c-.816-.429-1.511-.909-2.084-1.439a5.714 5.714 0 0 1-1.332-1.826c-.301-.702-.451-1.533-.451-2.493 0-1.002.193-1.89.58-2.664a5.582 5.582 0 0 1 1.676-1.976c.716-.53 1.575-.931 2.578-1.203s2.12-.409 3.352-.409c1.389 0 2.657.151 3.802.452 1.161.3 2.256.694 3.287 1.181l-1.353 3.158a24.858 24.858 0 0 0-2.879-1.074 9.644 9.644 0 0 0-2.986-.472c-1.461 0-2.543.243-3.244.73-.702.473-1.053 1.153-1.053 2.041 0 .501.079.938.236 1.311.172.372.459.723.86 1.052.401.33.938.666 1.611 1.01.673.33 1.511.702 2.514 1.117 1.031.43 1.947.86 2.75 1.289.816.43 1.511.917 2.084 1.461a5.459 5.459 0 0 1 1.31 1.826c.301.688.451 1.512.451 2.471ZM437.168 165l-.58-3.158h-.215a6.783 6.783 0 0 1-1.289 1.611 7.34 7.34 0 0 1-1.611 1.117 8.227 8.227 0 0 1-1.869.645 9.503 9.503 0 0 1-2.02.215c-1.303 0-2.449-.165-3.438-.494-.988-.33-1.811-.846-2.47-1.547-.659-.702-1.16-1.597-1.504-2.686-.33-1.088-.494-2.385-.494-3.889V141.41h3.91v15.19c0 1.862.379 3.258 1.139 4.189.759.931 1.933 1.397 3.523 1.397 1.16 0 2.134-.187 2.922-.559a4.542 4.542 0 0 0 1.89-1.633c.487-.73.831-1.626 1.032-2.685.215-1.06.322-2.278.322-3.653V141.41h3.91V165h-3.158Zm24.75-6.467c0 1.146-.208 2.149-.623 3.008a5.85 5.85 0 0 1-1.805 2.17c-.773.573-1.711 1.003-2.814 1.289-1.103.286-2.342.43-3.717.43-1.561 0-2.9-.129-4.018-.387-1.117-.244-2.098-.609-2.943-1.096v-3.566c.444.229.938.458 1.482.687a19.108 19.108 0 0 0 3.567 1.01c.644.1 1.282.151 1.912.151.931 0 1.719-.079 2.363-.237.659-.157 1.189-.379 1.59-.666.415-.301.716-.659.902-1.074.187-.43.28-.902.28-1.418 0-.444-.072-.845-.215-1.203-.143-.358-.408-.709-.795-1.053-.372-.358-.888-.716-1.547-1.074a31.784 31.784 0 0 0-2.535-1.203 43.807 43.807 0 0 1-2.793-1.311c-.816-.429-1.511-.909-2.084-1.439a5.714 5.714 0 0 1-1.332-1.826c-.301-.702-.451-1.533-.451-2.493 0-1.002.193-1.89.58-2.664a5.582 5.582 0 0 1 1.676-1.976c.716-.53 1.575-.931 2.578-1.203 1.002-.272 2.12-.409 3.351-.409 1.39 0 2.657.151 3.803.452 1.16.3 2.256.694 3.287 1.181l-1.353 3.158a24.858 24.858 0 0 0-2.879-1.074 9.65 9.65 0 0 0-2.987-.472c-1.46 0-2.542.243-3.244.73-.702.473-1.052 1.153-1.052 2.041 0 .501.078.938.236 1.311.172.372.458.723.859 1.052.401.33.938.666 1.612 1.01.673.33 1.511.702 2.513 1.117 1.032.43 1.948.86 2.75 1.289.817.43 1.511.917 2.084 1.461a5.448 5.448 0 0 1 1.311 1.826c.301.688.451 1.512.451 2.471Z"
  />
</svg>
