<?xml version="1.0" encoding="UTF-8" standalone="no"?>
<svg width="320px" height="240px" viewBox="0 0 320 240" version="1.1" xmlns="http://www.w3.org/2000/svg" xmlns:xlink="http://www.w3.org/1999/xlink" xmlns:sketch="http://www.bohemiancoding.com/sketch/ns">
    <!-- Generator: Sketch 3.3.3 (12072) - http://www.bohemiancoding.com/sketch -->
    <title>Artboard 1</title>
    <desc>Created with Sketch.</desc>
    <defs>
        <path id="path-1" d="M0,0 L134.65,0 L134.65,116 L0,116 L0,0 Z"></path>
    </defs>
    <g id="Page-1" stroke="none" stroke-width="1" fill="none" fill-rule="evenodd" sketch:type="MSPage">
        <g id="Artboard-1" sketch:type="MSArtboardGroup">
            <g id="Group" sketch:type="MSLayerGroup" transform="translate(91.000000, 62.000000)">
                <path d="M43.561,42.699 C42.48,43.211 41.143,43.523 39.793,43.707 C38.444,43.888 37.085,43.942 35.963,43.942 C31.646,43.942 28.472,43.303 26.282,42.24 C24.092,41.178 22.883,39.695 22.494,38.01 L11.747,38.267 L1,38.523 C1.171,39.695 1.452,41.47 2.347,43.448 C3.244,45.424 4.754,47.603 7.387,49.583 C10.969,52.293 15.804,53.756 20.509,54.543 C25.213,55.33 29.79,55.44 32.854,55.44 C41.055,55.44 47.725,54.728 52.981,53.197 C58.235,51.668 62.078,49.325 64.623,46.064 C65.529,44.93 66.326,43.576 66.899,42.074 C67.469,40.573 67.816,38.924 67.816,37.206 C67.816,34.86 67.17,32.408 65.508,30.22 C63.846,28.031 61.171,26.109 57.113,24.828 C55.817,24.387 54.522,24.039 53.217,23.748 C51.912,23.453 50.595,23.217 49.256,22.998 C47.185,22.593 45.091,22.228 42.999,21.859 C40.904,21.495 38.812,21.128 36.739,20.724 C35.056,20.433 32.681,19.993 30.546,19.425 C28.409,18.859 26.511,18.163 25.776,17.357 C25.56,17.137 25.387,16.864 25.268,16.55 C25.149,16.241 25.085,15.893 25.085,15.526 C25.085,13.622 26.768,12.578 28.808,12.009 C30.847,11.443 33.243,11.352 34.667,11.352 C39.243,11.352 41.79,12.12 43.257,13.1 C44.725,14.081 45.114,15.269 45.373,16.112 L56.078,15.6 L66.783,15.087 C66.481,13.693 65.962,11.188 64.097,8.641 C62.229,6.095 59.013,3.514 53.315,1.978 C51.415,1.427 48.631,0.934 45.394,0.575 C42.156,0.219 38.466,0 34.753,0 C31.386,0 26.638,0.145 21.879,1.042 C17.12,1.939 12.351,3.588 8.942,6.591 C7.43,7.91 6.2,9.466 5.347,11.178 C4.496,12.89 4.021,14.756 4.021,16.697 C4.021,21.42 6.46,24.517 9.19,26.521 C11.92,28.526 14.941,29.439 16.107,29.808 C17.272,30.137 18.416,30.43 19.57,30.694 C20.725,30.963 21.89,31.199 23.1,31.42 C24.61,31.711 28.797,32.37 32.941,33.049 C37.085,33.726 41.186,34.423 42.523,34.789 C43.386,35.044 44.401,35.428 45.2,36.052 C45.999,36.673 46.582,37.533 46.582,38.744 C46.582,39.621 46.192,40.426 45.622,41.104 C45.049,41.782 44.294,42.331 43.561,42.699" id="Fill-1" fill="#C42A2E" sketch:type="MSShapeGroup"></path>
                <mask id="mask-2" sketch:name="Clip 3" fill="white">
                    <use xlink:href="#path-1"></use>
                </mask>
                <g id="Clip-3"></g>
                <path d="M123.487,53.01 C128.643,50.945 132.844,46.509 132.844,39.014 C132.844,35.19 132.106,32.437 129.897,29.988 C127.022,26.853 123.266,26.241 120.17,25.782 C126.506,24.175 130.19,20.428 130.19,13.698 C130.19,11.25 129.528,6.659 125.768,3.83 C122.158,1.152 117.225,1.077 113.615,1 L70,1 L70,55 L110.004,55 C114.055,55 119.141,54.694 123.487,53.01 L123.487,53.01 Z M88.711,13.238 L106.248,13.238 C108.012,13.238 109.266,13.314 110.004,13.698 C111.698,14.462 112.362,15.685 112.362,17.215 C112.362,19.28 111.477,20.582 110.076,21.116 C109.561,21.347 108.973,21.575 106.172,21.575 L88.711,21.575 L88.711,13.238 L88.711,13.238 Z M88.636,42.688 L88.636,33.279 L107.129,33.279 C109.414,33.279 110.668,33.279 111.846,33.659 C113.391,34.119 114.352,35.497 114.352,37.562 C114.352,39.396 113.907,41.308 111.477,42.228 C110.668,42.608 109.342,42.688 107.498,42.688 L88.636,42.688 L88.636,42.688 Z" id="Fill-2" fill="#C42A2E" sketch:type="MSShapeGroup" mask="url(#mask-2)"></path>
                <path d="M45.309,99.986 C42.582,102.261 38.825,103.55 34.772,103.55 C24.09,103.55 19.449,95.136 19.449,87.028 C19.449,75.659 26.963,70.279 35.362,70.279 C38.016,70.279 41.477,70.885 44.277,72.703 C47.002,74.522 47.887,76.568 48.623,78.084 L65.864,74.902 C64.168,69.823 60.189,58 34.92,58 C5.302,58 0,76.72 0,87.104 C0,101.807 8.84,110.218 19.522,113.628 C24.312,115.142 29.32,115.6 34.405,115.6 C45.824,115.6 57.758,112.87 63.874,103.17 C65.568,100.441 66.23,98.474 66.819,96.5 L49.064,94.604 C48.476,96.197 47.739,97.939 45.309,99.986" id="Fill-4" fill="#C42A2E" sketch:type="MSShapeGroup" mask="url(#mask-2)"></path>
                <path d="M117.063,94.604 C116.474,96.197 115.735,97.939 113.304,99.986 C110.579,102.261 106.82,103.55 102.772,103.55 C92.086,103.55 87.446,95.136 87.446,87.028 C87.446,75.659 94.96,70.279 103.357,70.279 C106.012,70.279 109.475,70.885 112.275,72.703 C115,74.522 115.882,76.568 116.617,78.084 L133.861,74.902 C132.165,69.823 128.187,58 102.918,58 C73.302,58 68,76.72 68,87.104 C68,101.807 76.837,110.218 87.519,113.628 C92.309,115.142 97.316,115.6 102.402,115.6 C113.822,115.6 125.758,112.87 131.872,103.17 C133.565,100.441 134.231,98.474 134.816,96.5 L117.063,94.604" id="Fill-5" fill="#C42A2E" sketch:type="MSShapeGroup" mask="url(#mask-2)"></path>
            </g>
        </g>
    </g>
</svg>